<?xml version="1.0" standalone="no"?>
<!DOCTYPE svg PUBLIC "-//W3C//DTD SVG 20010904//EN"
 "http://www.w3.org/TR/2001/REC-SVG-20010904/DTD/svg10.dtd">
<svg version="1.0" xmlns="http://www.w3.org/2000/svg"
 width="512.000000pt" height="512.000000pt" viewBox="0 0 512.000000 512.000000"
 preserveAspectRatio="xMidYMid meet">
<metadata>
Created by potrace 1.16, written by Peter Selinger 2001-2019
</metadata>
<g transform="translate(0.000000,512.000000) scale(0.100000,-0.100000)"
fill="#000000" stroke="none">
<path d="M290 5102 c-101 -38 -172 -94 -225 -177 -71 -111 -65 94 -65 -2365 0
-2037 1 -2220 17 -2266 43 -129 147 -233 277 -277 46 -16 225 -17 2266 -17
2037 0 2220 1 2266 17 129 43 233 147 277 277 15 44 17 121 17 721 0 753 2
725 -73 837 -46 68 -119 126 -196 154 -25 10 -48 19 -50 20 -2 2 11 21 28 43
98 123 124 299 65 440 -8 20 -153 276 -322 570 -235 409 -319 546 -359 588
-92 95 -236 145 -364 125 -35 -5 -64 -9 -65 -8 -1 0 4 33 9 72 22 154 -50 314
-182 403 -98 66 -1054 614 -1116 640 -48 20 -77 25 -145 24 -105 0 -170 -20
-257 -80 -36 -24 -66 -43 -67 -41 -1 2 -10 24 -20 49 -28 77 -86 150 -154 196
-112 76 -83 73 -841 72 -606 0 -681 -2 -721 -17z m1363 -306 c18 -7 41 -25 50
-39 16 -25 17 -169 17 -2197 0 -2028 -1 -2172 -17 -2197 -35 -53 -33 -53 -689
-53 -672 0 -657 -1 -688 65 -14 30 -16 246 -16 2185 0 1935 2 2155 16 2185 31
66 13 65 687 65 491 0 614 -3 640 -14z m1266 -496 c567 -328 566 -328 558
-405 -4 -30 -177 -338 -718 -1276 l-714 -1235 -3 186 -2 186 611 1058 c500
867 608 1061 597 1071 -26 24 -869 505 -877 501 -5 -3 -80 -130 -167 -281
l-159 -276 -3 186 -2 186 106 185 c58 101 118 194 132 205 57 44 73 37 641
-291z m-252 -441 c87 -50 160 -93 162 -95 3 -2 -94 -174 -283 -501 -3 -4 -341
197 -341 204 0 22 281 493 292 489 6 -3 83 -46 170 -97z m1312 -406 c16 -16
163 -260 326 -543 322 -559 326 -567 283 -628 -18 -27 -285 -185 -1258 -747
-679 -392 -1236 -711 -1238 -710 -2 2 38 75 88 162 l92 159 1054 608 c580 335
1057 612 1059 617 5 8 -475 851 -500 877 -10 11 -58 -12 -271 -136 -143 -82
-270 -155 -283 -162 -27 -14 -29 -19 104 210 l61 104 144 84 c214 124 231 132
272 132 27 0 46 -8 67 -27z m-1599 -467 c0 -4 -63 -118 -141 -252 l-141 -244
-29 15 -29 16 0 334 0 334 170 -97 c93 -53 169 -101 170 -106z m1484 -327 c54
-93 97 -172 95 -174 -17 -16 -494 -284 -498 -279 -3 3 -49 80 -102 172 l-97
166 147 85 c80 46 191 110 246 142 55 33 102 59 105 59 3 0 49 -77 104 -171z
m-772 -449 l97 -170 -67 -39 c-37 -21 -149 -86 -249 -144 l-182 -105 -16 25
c-9 13 -15 30 -13 37 4 19 322 566 328 566 3 -1 49 -77 102 -170z m1664 -506
c55 -37 54 -22 54 -684 0 -537 -2 -616 -16 -645 -33 -69 64 -65 -1426 -65
l-1345 0 11 60 c11 60 12 61 71 95 l60 34 1228 1 1227 0 0 515 0 515 -330 2
-331 3 158 92 158 92 228 0 c195 1 231 -1 253 -15z m-456 -684 l0 -200 -290 0
-290 0 0 200 0 200 290 0 290 0 0 -200z m-890 -5 l0 -195 -290 0 -290 0 0 33
c1 31 5 35 283 194 155 89 285 163 290 163 4 0 7 -88 7 -195z"/>
<path d="M913 1415 c-79 -22 -131 -51 -188 -109 -237 -237 -99 -649 235 -696
274 -39 508 201 462 473 -16 89 -50 157 -110 220 -105 108 -257 150 -399 112z
m172 -332 c39 -40 37 -96 -6 -135 -41 -39 -88 -38 -128 3 -40 39 -42 85 -6
128 39 46 96 47 140 4z"/>
</g>
</svg>
