<svg width="128" height="128" viewBox="0 0 840 840" xmlns="http://www.w3.org/2000/svg">
<g transform="translate(0.000000,859.000000) scale(0.100000,-0.100000)"
fill="#000000" stroke="none">
<path d="M695 8453 c-297 -43 -543 -258 -627 -550 l-23 -78 0 -3540 0 -3540
33 -94 c72 -206 198 -352 384 -446 165 -83 129 -80 1103 -80 l860 0 79 23
c269 76 472 279 543 542 17 61 18 261 18 3605 l0 3540 -23 75 c-43 136 -97
225 -197 325 -101 100 -193 156 -325 197 l-75 23 -860 1 c-473 1 -873 -1 -890
-3z m1020 -6852 c79 -37 148 -104 183 -179 37 -79 43 -213 14 -290 -58 -152
-195 -246 -357 -246 -150 1 -271 77 -337 212 -30 61 -33 74 -33 162 0 84 3
102 29 157 30 66 105 147 167 178 102 54 228 56 334 6z"/>
<path d="M5623 7304 c-77 -16 -170 -55 -242 -101 -36 -22 -323 -301 -803 -781
l-748 -747 0 -2140 0 -2140 1828 1830 1829 1830 46 95 c26 52 54 122 62 154
36 142 28 299 -20 438 -56 160 -63 168 -694 801 -322 324 -613 608 -647 633
-134 96 -285 145 -448 143 -56 -1 -129 -7 -163 -15z"/>
<path d="M6753 3150 l-101 -5 -1501 -1502 c-826 -826 -1501 -1506 -1501 -1512
0 -15 3940 -15 4058 -1 97 13 217 53 299 101 75 44 218 187 262 262 48 82 88
202 101 299 14 111 14 1585 0 1696 -22 173 -108 342 -235 460 -69 65 -173 131
-245 157 -119 42 -156 45 -602 48 -238 2 -479 0 -535 -3z"/>
</g>
</svg>
