<?xml version="1.0" standalone="no"?>
<!DOCTYPE svg PUBLIC "-//W3C//DTD SVG 20010904//EN"
 "http://www.w3.org/TR/2001/REC-SVG-20010904/DTD/svg10.dtd">
<svg version="1.0" xmlns="http://www.w3.org/2000/svg"
 width="512.000000pt" height="512.000000pt" viewBox="0 0 512.000000 512.000000"
 preserveAspectRatio="xMidYMid meet">
<metadata>
Created by potrace 1.16, written by Peter Selinger 2001-2019
</metadata>
<g transform="translate(0.000000,512.000000) scale(0.100000,-0.100000)"
fill="#000000" stroke="none">
<path d="M1050 4805 l0 -315 1720 0 1720 0 0 -1720 0 -1720 315 0 315 0 0
2035 0 2035 -2035 0 -2035 0 0 -315z"/>
<path d="M0 2085 l0 -2085 2085 0 2085 0 0 2085 0 2085 -2085 0 -2085 0 0
-2085z m1201 1258 c208 -91 258 -364 98 -524 -65 -65 -138 -94 -234 -94 -65 0
-90 5 -130 24 -210 104 -258 367 -96 528 99 99 232 123 362 66z m2003 -1667
c328 -467 595 -850 593 -852 -2 -2 -771 -3 -1710 -2 l-1705 3 490 635 c269
349 493 638 496 642 4 3 112 -131 241 -298 129 -167 237 -304 241 -304 4 0
166 226 360 503 384 546 380 541 390 530 4 -5 276 -390 604 -857z"/>
</g>
</svg>
