<?xml version="1.0" standalone="no"?>
<!DOCTYPE svg PUBLIC "-//W3C//DTD SVG 20010904//EN"
 "http://www.w3.org/TR/2001/REC-SVG-20010904/DTD/svg10.dtd">
<svg version="1.0" xmlns="http://www.w3.org/2000/svg"
 width="512.000000pt" height="493.000000pt" viewBox="0 0 512.000000 493.000000"
 preserveAspectRatio="xMidYMid meet">
<metadata>
Created by potrace 1.16, written by Peter Selinger 2001-2019
</metadata>
<g transform="translate(0.000000,493.000000) scale(0.100000,-0.100000)"
fill="#000000" stroke="none">
<path d="M105 4883 c-45 -23 -76 -54 -91 -90 -12 -27 -14 -405 -14 -2327 0
-1601 3 -2303 11 -2323 14 -38 46 -71 91 -94 36 -19 98 -19 2458 -19 2210 0
2424 1 2453 16 18 9 43 26 55 38 55 50 52 -112 52 2383 0 2255 -1 2309 -19
2339 -11 18 -36 45 -57 60 l-37 29 -2436 2 c-2207 2 -2439 1 -2466 -14z m4465
-2078 l0 -1585 -2040 0 -2040 0 0 1585 0 1585 2040 0 2040 0 0 -1585z"/>
<path d="M1161 4125 c-197 -37 -362 -180 -429 -369 -35 -101 -35 -241 0 -342
64 -182 219 -320 408 -365 75 -17 212 -15 289 5 181 47 332 187 393 364 32 94
32 240 0 334 -93 269 -373 428 -661 373z"/>
<path d="M3033 3426 c-18 -8 -48 -32 -68 -53 -19 -21 -159 -229 -311 -463
-151 -234 -296 -447 -322 -473 -26 -26 -72 -60 -102 -75 -46 -23 -68 -27 -140
-27 -80 0 -90 2 -170 43 -109 54 -185 69 -275 54 -80 -13 -176 -57 -227 -103
-65 -59 -599 -672 -619 -711 -11 -21 -19 -57 -19 -83 0 -38 5 -52 28 -75 16
-15 46 -33 68 -39 57 -16 3218 -15 3265 0 47 16 96 54 114 89 19 36 19 120 1
163 -18 44 -942 1634 -972 1674 -47 62 -90 87 -158 90 -38 2 -73 -2 -93 -11z"/>
</g>
</svg>
