<?xml version="1.0" ?><svg viewBox="0 0 512 512" xmlns="http://www.w3.org/2000/svg"><title/><g data-name="/ OUTLINE" id="_OUTLINE"><path d="M408,16H104A40.04584,40.04584,0,0,0,64,56V472a24.0275,24.0275,0,0,0,24,24H360a24.0275,24.0275,0,0,0,24-24V320h40a24.0275,24.0275,0,0,0,24-24V56A40.04584,40.04584,0,0,0,408,16ZM368,320V472a8.00917,8.00917,0,0,1-8,8H88a8.00917,8.00917,0,0,1-8-8V118.51514l17.33105,10.94677,25.332-16,25.332,16,25.32715-15.999,25.33105,15.999,25.33106-16,25.334,16,25.334-16,25.335,16,25.335-16,25.33886,15.999L368,118.51294Zm0-220.41016-17.33887,10.94922-25.33886-16.001-25.335,16-25.335-16-25.334,16-25.334-16-25.33106,16-25.33105-16.001-25.32715,16.001-25.332-16-25.332,16L80,99.59082V80H368ZM368,56v8H80V56a24.0275,24.0275,0,0,1,24-24H376.022A39.79015,39.79015,0,0,0,368,56Zm64,240a8.00917,8.00917,0,0,1-8,8H384V56a24,24,0,0,1,48,0Z"/><path d="M136,152H120a24.0275,24.0275,0,0,0-24,24v16a24.0275,24.0275,0,0,0,24,24h16a24.0275,24.0275,0,0,0,24-24V176A24.0275,24.0275,0,0,0,136,152Zm8,40a8.00917,8.00917,0,0,1-8,8H120a8.00917,8.00917,0,0,1-8-8V176a8.00917,8.00917,0,0,1,8-8h16a8.00917,8.00917,0,0,1,8,8Z"/><rect height="16" width="112" x="176" y="176"/><path d="M136,232H120a24.0275,24.0275,0,0,0-24,24v16a24.0275,24.0275,0,0,0,24,24h16a24.0275,24.0275,0,0,0,24-24V256A24.0275,24.0275,0,0,0,136,232Zm8,40a8.00917,8.00917,0,0,1-8,8H120a8.00917,8.00917,0,0,1-8-8V256a8.00917,8.00917,0,0,1,8-8h16a8.00917,8.00917,0,0,1,8,8Z"/><rect height="16" width="112" x="176" y="256"/><path d="M136,312H120a24.0275,24.0275,0,0,0-24,24v16a24.0275,24.0275,0,0,0,24,24h16a24.0275,24.0275,0,0,0,24-24V336A24.0275,24.0275,0,0,0,136,312Zm8,40a8.00917,8.00917,0,0,1-8,8H120a8.00917,8.00917,0,0,1-8-8V336a8.00917,8.00917,0,0,1,8-8h16a8.00917,8.00917,0,0,1,8,8Z"/><rect height="16" width="112" x="176" y="336"/><path d="M136,392H120a24.0275,24.0275,0,0,0-24,24v16a24.0275,24.0275,0,0,0,24,24h16a24.0275,24.0275,0,0,0,24-24V416A24.0275,24.0275,0,0,0,136,392Zm8,40a8.00917,8.00917,0,0,1-8,8H120a8.00917,8.00917,0,0,1-8-8V416a8.00917,8.00917,0,0,1,8-8h16a8.00917,8.00917,0,0,1,8,8Z"/><rect height="16" width="112" x="176" y="416"/><path d="M328,136a24.0275,24.0275,0,0,0-24,24V426.42188l24,36,24-36V160A24.0275,24.0275,0,0,0,328,136Zm8,285.57812-8,12-8-12V192h16ZM336,176H320V160a8,8,0,0,1,16,0Z"/></g></svg>