<?xml version="1.0" standalone="no"?>
<!DOCTYPE svg PUBLIC "-//W3C//DTD SVG 20010904//EN"
 "http://www.w3.org/TR/2001/REC-SVG-20010904/DTD/svg10.dtd">
<svg version="1.0" xmlns="http://www.w3.org/2000/svg"
 width="512.000000pt" height="512.000000pt" viewBox="0 0 512.000000 512.000000"
 preserveAspectRatio="xMidYMid meet">
<metadata>
Created by potrace 1.16, written by Peter Selinger 2001-2019
</metadata>
<g transform="translate(0.000000,512.000000) scale(0.100000,-0.100000)"
fill="#000000" stroke="none">
<path d="M725 5095 c-77 -31 -155 -111 -184 -190 -18 -49 -21 -78 -21 -235 l0
-180 -260 0 -260 0 0 -160 0 -160 259 0 259 0 4 -192 c3 -181 5 -196 28 -243
31 -63 100 -133 165 -165 l50 -25 1782 -3 c1779 -2 1782 -2 1837 18 68 26 149
97 181 160 33 65 45 149 45 313 l0 137 100 0 100 0 0 -465 0 -465 -1205 0
-1205 0 0 -410 0 -410 160 0 160 0 0 255 0 255 1200 0 1200 0 0 780 0 780
-255 0 -255 0 0 143 c0 165 -10 241 -41 302 -29 58 -92 121 -154 154 l-50 26
-1790 2 -1790 3 -60 -25z"/>
<path d="M2030 1332 c0 -756 2 -886 15 -937 47 -180 200 -333 380 -381 69 -19
219 -18 285 2 163 48 306 188 363 354 21 65 22 68 25 953 l3 887 -536 0 -535
0 0 -878z"/>
</g>
</svg>
