<?xml version="1.0" ?><svg viewBox="0 0 512 512" xmlns="http://www.w3.org/2000/svg"><title/><g data-name="/ OUTLINE" id="_OUTLINE"><path d="M456,208h-8V86.62695a23.84385,23.84385,0,0,0-7.02979-16.9707l-46.627-46.62695A23.84254,23.84254,0,0,0,377.37256,16H128a24.02718,24.02718,0,0,0-24,24v96H56a40.04552,40.04552,0,0,0-40,40V456a40.04552,40.04552,0,0,0,40,40H456a40.04552,40.04552,0,0,0,40-40V248A40.04552,40.04552,0,0,0,456,208ZM384,35.314,420.686,72H392a8.00917,8.00917,0,0,1-8-8ZM120,40a8.00917,8.00917,0,0,1,8-8H368V64a24.02718,24.02718,0,0,0,24,24h40V208H120ZM80,456a24,24,0,0,1-48,0V176a24.0275,24.0275,0,0,1,24-24h48v59.3501A40.05181,40.05181,0,0,0,80,248Zm400,0a24.0275,24.0275,0,0,1-24,24H87.981A39.79461,39.79461,0,0,0,96,456V248a24.0275,24.0275,0,0,1,24-24H456a24.0275,24.0275,0,0,1,24,24Z"/><rect height="16" width="232" x="136" y="96"/><rect height="16" width="280" x="136" y="136"/><rect height="16" width="280" x="136" y="176"/><rect height="16" width="216" x="136" y="56"/><path d="M254.85986,316.11621l-13.71972-8.23242-15.61335,26.02246a64.01224,64.01224,0,0,1,96.59089-68.06445l8.543-13.5293A79.98448,79.98448,0,0,0,209.20532,333.794l-21.08911-12.6543-8.23242,13.7207,46.86035,28.11524Z"/><path d="M334.85986,332.11621l15.61768-26.02978a64.01647,64.01647,0,0,1-96.93311,67.85791L244.918,387.419A80.01236,80.01236,0,0,0,368,320a80.76338,80.76338,0,0,0-1.17114-13.77344l21.05493,12.63379,8.23242-13.7207-46.86035-28.11524-28.11572,46.85938Z"/><path d="M400,416H176a24,24,0,0,0,0,48H400a24,24,0,0,0,0-48ZM180.686,448H176a8,8,0,0,1,0-16h20.686Zm48,0H203.314l16-16H244.686Zm48,0H251.314l16-16H292.686Zm48,0H299.314l16-16H340.686ZM400,448H347.314l16-16H400a8,8,0,0,1,0,16Z"/></g></svg>